<?xml version="1.0" encoding="utf-8"?>
<!-- Generator: Adobe Illustrator 19.1.0, SVG Export Plug-In . SVG Version: 6.00 Build 0)  -->
<svg version="1.1" id="Layer_1" xmlns="http://www.w3.org/2000/svg" xmlns:xlink="http://www.w3.org/1999/xlink" x="0px" y="0px"
	 viewBox="0 0 178.9 56.7" style="enable-background:new 0 0 178.9 56.7;" xml:space="preserve">
<style type="text/css">
	.st0{enable-background:new    ;}
	.st1{fill:#8BC53F;enable-background:new    ;}
	.st2{fill:#EB008B;enable-background:new    ;}
	.st3{fill:#FAAF40;enable-background:new    ;}
	.st4{fill:#EE4036;enable-background:new    ;}
	.st5{fill:#00A69C;enable-background:new    ;}
	.st6{fill:#149898;enable-background:new    ;}
	.st7{fill:#ACB75F;enable-background:new    ;}
	.st8{fill:#26A9E0;enable-background:new    ;}
	.st9{fill:#F0764B;enable-background:new    ;}
	.st10{fill:#26A9E0;}
	.st11{fill:url(#SVGID_1_);}
	.st12{fill:url(#SVGID_2_);}
	.st13{fill:url(#SVGID_3_);}
	.st14{fill:url(#SVGID_4_);}
	.st15{fill:url(#SVGID_5_);}
	.st16{fill:#002E3F;}
	.st17{fill:#00354A;}
</style>
<g>
	<g class="st0">
		<path class="st1" d="M34.5,37.8c-2.5,0-4.5,2-4.5,4.5c0,2.5,2,4.5,4.5,4.5c2.5,0,4.5-2,4.5-4.5v-4.5H34.5z"/>
		<path class="st2" d="M24.9,37.8c2.5,0,4.5,2,4.5,4.5c0,2.5-2,4.5-4.5,4.5c-2.5,0-4.5-2-4.5-4.5v-4.5H24.9z"/>
		<path class="st1" d="M24.9,19c2.5,0,4.5-2,4.5-4.5s-2-4.5-4.5-4.5c-2.5,0-4.5,2-4.5,4.5V19H24.9z"/>
		<path class="st3" d="M34.5,19C32,19,30,17,30,14.5c0-2.5,2-4.5,4.5-4.5c2.5,0,4.5,2,4.5,4.5V19H34.5z"/>
		<path class="st4" d="M39.1,23.5c0,2.5,2,4.5,4.5,4.5c2.5,0,4.5-2,4.5-4.5c0-2.5-2-4.5-4.5-4.5h-4.5V23.5z"/>
		<path class="st5" d="M39.1,33.2c0-2.5,2-4.5,4.5-4.5c2.5,0,4.5,2,4.5,4.5c0,2.5-2,4.5-4.5,4.5h-4.5V33.2z"/>
		<path class="st6" d="M16.5,17.1c-1.1,0-2.1-0.9-2.1-2.1c0-1.1,0.9-2.1,2.1-2.1c1.1,0,2.1,0.9,2.1,2.1v2.1H16.5z"/>
		<path class="st7" d="M18.5,41.7c0,1.1-0.9,2.1-2.1,2.1c-1.1,0-2.1-0.9-2.1-2.1c0-1.1,0.9-2.1,2.1-2.1h2.1V41.7z"/>
		<path class="st8" d="M43,39.6c1.1,0,2.1,0.9,2.1,2.1c0,1.1-0.9,2.1-2.1,2.1c-1.1,0-2.1-0.9-2.1-2.1v-2.1H43z"/>
		<path class="st9" d="M40.9,15c0-1.1,0.9-2.1,2.1-2.1c1.1,0,2.1,0.9,2.1,2.1s-0.9,2.1-2.1,2.1h-2.1V15z"/>
		<path class="st3" d="M20.4,23.5c0,2.5-2,4.5-4.5,4.5c-2.5,0-4.5-2-4.5-4.5c0-2.5,2-4.5,4.5-4.5h4.5V23.5z"/>
		<path class="st4" d="M20.4,33.2c0-2.5-2-4.5-4.5-4.5c-2.5,0-4.5,2-4.5,4.5c0,2.5,2,4.5,4.5,4.5h4.5V33.2z"/>
		<g class="st0">
			<path class="st10" d="M30.2,29.2L30.2,29.2C30.2,29.2,30.2,29.2,30.2,29.2c0.1,0,0.1,0,0.2,0C30.3,29.2,30.2,29.2,30.2,29.2
				L30.2,29.2z"/>
			
				<linearGradient id="SVGID_1_" gradientUnits="userSpaceOnUse" x1="13957.2773" y1="11161.3965" x2="13977.6299" y2="11161.3965" gradientTransform="matrix(-0.6831 -0.7304 0.7304 -0.6831 1423.2694 17855.4375)">
				<stop  offset="0.1472" style="stop-color:#F9EC31"/>
				<stop  offset="0.8282" style="stop-color:#40894D"/>
			</linearGradient>
			<path class="st11" d="M30.3,29.2c2.2,0.2,3.9,2,3.9,4.2c0,0,0,0,0,0.1c0,0,0,0,0,0c0,0,0,0,0,0l0,0h0c0,2.3,1.8,4.2,4.1,4.3
				c2.3,0.1,4.3-1.7,4.4-4.1c0.1-2.3-1.7-4.3-4.1-4.4c-0.2,0-0.3,0-0.5,0c-2-0.3-3.5-2-3.6-4.1c0-0.1,0-0.2,0-0.2
				c0.1-2.3-1.7-4.3-4.1-4.4c-2.3-0.1-4.3,1.7-4.4,4.1c-0.1,2.3,1.7,4.3,4.1,4.4"/>
		</g>
		<g class="st0">
			<path class="st10" d="M21.6,26.2L21.6,26.2C21.6,26.2,21.6,26.2,21.6,26.2c0,0-0.1,0.1-0.1,0.1C21.5,26.3,21.5,26.3,21.6,26.2
				L21.6,26.2z"/>
			
				<linearGradient id="SVGID_2_" gradientUnits="userSpaceOnUse" x1="9350.4092" y1="15927.0078" x2="9370.7646" y2="15927.0078" gradientTransform="matrix(-0.9994 -3.340000e-02 3.340000e-02 -0.9994 8841.5117 16259.248)">
				<stop  offset="0.1472" style="stop-color:#00A69C"/>
				<stop  offset="0.4172" style="stop-color:#26A9E0"/>
			</linearGradient>
			<path class="st12" d="M15.5,32c1.7-1.5,4.2-1.4,5.8,0.2c0,0,0,0,0,0c0,0,0,0,0,0c0,0,0,0,0,0l0,0l0,0c1.6,1.7,4.2,1.7,5.9,0.2
				c1.7-1.6,1.8-4.3,0.2-6c-1.6-1.7-4.3-1.8-6-0.2c-0.1,0.1-0.2,0.2-0.3,0.4c-1.6,1.2-3.9,1.1-5.4-0.4c-0.1-0.1-0.1-0.1-0.2-0.2
				c-1.6-1.7-4.3-1.8-6-0.2c-1.7,1.6-1.8,4.3-0.2,6c1.6,1.7,4.3,1.8,6,0.2"/>
		</g>
		<g class="st0">
			<path class="st10" d="M26.6,20.9L26.6,20.9C26.6,20.9,26.6,20.9,26.6,20.9c0,0,0.1,0.1,0.1,0.1C26.6,21,26.6,21,26.6,20.9
				C26.6,20.9,26.6,20.9,26.6,20.9z"/>
			
				<linearGradient id="SVGID_3_" gradientUnits="userSpaceOnUse" x1="13014.5" y1="3780.1467" x2="13034.8564" y2="3780.1467" gradientTransform="matrix(3.340000e-02 -0.9994 0.9994 3.340000e-02 -4183.4297 12914.5938)">
				<stop  offset="0.1472" style="stop-color:#00A69C"/>
				<stop  offset="0.8282" style="stop-color:#F05A28"/>
			</linearGradient>
			<path class="st13" d="M26.7,21c1.5,1.7,1.4,4.2-0.2,5.8c0,0,0,0,0,0c0,0,0,0,0,0c0,0,0,0,0,0l0,0l0,0c-1.7,1.6-1.7,4.2-0.2,5.9
				c1.6,1.7,4.3,1.8,6,0.2c1.7-1.6,1.8-4.3,0.2-6c-0.1-0.1-0.2-0.2-0.4-0.3c-1.2-1.6-1.1-3.9,0.4-5.4c0.1-0.1,0.1-0.1,0.2-0.2
				c1.7-1.6,1.8-4.3,0.2-6c-1.6-1.7-4.3-1.8-6-0.2c-1.7,1.6-1.8,4.3-0.2,6"/>
		</g>
		<g class="st0">
			
				<linearGradient id="SVGID_4_" gradientUnits="userSpaceOnUse" x1="2094.4856" y1="17893.9355" x2="2094.5942" y2="17893.9355" gradientTransform="matrix(-0.7304 0.6831 -0.6831 -0.7304 13783.292 11676.3496)">
				<stop  offset="0.1472" style="stop-color:#EC297B"/>
				<stop  offset="0.8282" style="stop-color:#26A9E0"/>
			</linearGradient>
			<path class="st14" d="M30.1,37.5L30.1,37.5C30.1,37.5,30.1,37.5,30.1,37.5c0-0.1,0-0.1,0-0.2C30.1,37.4,30.1,37.4,30.1,37.5
				C30.1,37.5,30.1,37.5,30.1,37.5z"/>
			
				<linearGradient id="SVGID_5_" gradientUnits="userSpaceOnUse" x1="2081.4497" y1="17896.9023" x2="2101.803" y2="17896.9023" gradientTransform="matrix(-0.7304 0.6831 -0.6831 -0.7304 13783.292 11676.3496)">
				<stop  offset="0.1472" style="stop-color:#F5851F"/>
				<stop  offset="0.8282" style="stop-color:#FFD420"/>
			</linearGradient>
			<path class="st15" d="M30.1,37.3c0.2-2.2,2-3.9,4.2-3.9c0,0,0,0,0.1,0c0,0,0,0,0,0c0,0,0,0,0,0h0v0c2.3,0,4.2-1.8,4.3-4.1
				c0.1-2.3-1.7-4.3-4.1-4.4c-2.3-0.1-4.3,1.7-4.4,4.1c0,0.2,0,0.3,0,0.5c-0.3,2-2,3.5-4.1,3.6c-0.1,0-0.2,0-0.2,0
				c-2.3-0.1-4.3,1.7-4.4,4.1c-0.1,2.3,1.7,4.3,4.1,4.4c2.3,0.1,4.3-1.7,4.4-4.1"/>
		</g>
	</g>
	<g>
		<path class="st16" d="M60.1,41.5c-2,0-4.1-0.5-5.8-1.6l1.1-2.2c1.6,0.9,3,1.5,4.8,1.5c2.2,0,3.5-1,3.5-2.8c0-1.3-0.8-2.1-2.6-2.6
			l-1.9-0.5c-1.6-0.5-2.8-1.1-3.4-2.1c-0.5-0.7-0.7-1.6-0.7-2.6c0-3.1,2.5-5.2,6-5.2c2,0,4,0.6,5.6,1.7L65.2,27
			c-1.6-1-2.8-1.4-4.2-1.4c-1.7,0-2.9,0.9-2.9,2.4c0,1.1,0.6,1.7,2.3,2.2l2.1,0.6c2.6,0.7,4.3,2.4,4.3,5
			C67,38.8,64.6,41.5,60.1,41.5z"/>
		<path class="st16" d="M73.6,41.5c-3.5,0-5.5-2.5-5.5-6.6c0-4.7,2.8-6.9,5.7-6.9c1.4,0,2.4,0.3,3.6,1.4L76,31.2
			c-0.8-0.7-1.4-1-2.2-1c-0.9,0-1.6,0.5-2,1.3c-0.4,0.8-0.5,2-0.5,3.6c0,1.8,0.3,2.9,0.9,3.5c0.4,0.5,1,0.7,1.7,0.7
			c0.9,0,1.8-0.4,2.6-1.3l1.3,1.7C76.6,41,75.3,41.5,73.6,41.5z"/>
		<path class="st16" d="M80.4,26.4c-1,0-1.8-0.8-1.8-1.9c0-1,0.8-1.9,1.9-1.9c1,0,1.8,0.8,1.8,1.9C82.3,25.5,81.5,26.4,80.4,26.4z
			 M79,41.2V28.5l2.8-0.5v13.2H79z"/>
		<path class="st16" d="M87,35.5v0.2c0,1.8,0.7,3.7,3.2,3.7c1.2,0,2.2-0.4,3.2-1.3l1.1,1.7c-1.4,1.1-2.9,1.7-4.6,1.7
			c-3.7,0-5.9-2.6-5.9-6.8c0-2.3,0.5-3.8,1.6-5.1c1-1.2,2.3-1.7,4-1.7c1.3,0,2.5,0.3,3.5,1.3c1.1,1,1.7,2.6,1.7,5.6v0.6H87z
			 M89.5,30.1c-1.6,0-2.5,1.3-2.5,3.3h4.8C91.8,31.3,90.9,30.1,89.5,30.1z"/>
		<path class="st16" d="M103.6,41.2v-8.6c0-1.8-0.4-2.2-1.5-2.2c-0.8,0-2,0.6-2.8,1.5v9.4h-2.8v-9.5c0-1.4-0.1-2.1-0.5-3.1l2.6-0.7
			c0.3,0.6,0.5,1.1,0.5,1.8c1.4-1.2,2.6-1.8,4-1.8c2,0,3.4,1.2,3.4,3.6v9.6H103.6z"/>
		<path class="st16" d="M113.9,41.5c-3.5,0-5.5-2.5-5.5-6.6c0-4.7,2.8-6.9,5.7-6.9c1.4,0,2.4,0.3,3.6,1.4l-1.4,1.9
			c-0.8-0.7-1.4-1-2.2-1c-0.9,0-1.6,0.5-2,1.3c-0.4,0.8-0.5,2-0.5,3.6c0,1.8,0.3,2.9,0.9,3.5c0.4,0.5,1,0.7,1.7,0.7
			c0.9,0,1.8-0.4,2.6-1.3l1.3,1.7C116.8,41,115.6,41.5,113.9,41.5z"/>
		<path class="st16" d="M121.5,35.5v0.2c0,1.8,0.7,3.7,3.2,3.7c1.2,0,2.2-0.4,3.2-1.3l1.1,1.7c-1.4,1.1-2.9,1.7-4.6,1.7
			c-3.7,0-5.9-2.6-5.9-6.8c0-2.3,0.5-3.8,1.6-5.1c1-1.2,2.3-1.7,4-1.7c1.3,0,2.5,0.3,3.5,1.3c1.1,1,1.7,2.6,1.7,5.6v0.6H121.5z
			 M123.9,30.1c-1.6,0-2.5,1.3-2.5,3.3h4.8C126.3,31.3,125.4,30.1,123.9,30.1z"/>
		<path class="st16" d="M144.2,41.2h-9V23.5h3v15.2h6.5L144.2,41.2z"/>
		<path class="st16" d="M154.4,41.7c-0.8-0.3-1.5-0.9-1.8-1.7c-1,1.2-2.2,1.6-3.5,1.6c-3,0-4.3-1.6-4.3-3.9c0-3,2.2-4.5,6.4-4.5h0.9
			v-0.7c0-1.5-0.3-2.3-1.8-2.3c-1.7,0-3.4,1.2-3.9,1.5l-1.3-2c1.9-1.2,3.5-1.8,5.5-1.8c2,0,3.4,0.7,3.9,2.1c0.2,0.6,0.2,1.3,0.2,3.2
			l-0.1,3.7c0,1.7,0.1,2.3,1.1,3L154.4,41.7z M151.5,35.1c-2.8,0-3.7,0.8-3.7,2.5c0,1.2,0.7,2,1.8,2c0.9,0,1.8-0.5,2.3-1.4l0.1-3.1
			C152,35.1,151.7,35.1,151.5,35.1z"/>
		<path class="st16" d="M163.2,41.5c-1.3,0-2.3-0.5-3.1-1.5c-0.1,0.7-0.2,0.9-0.4,1.2h-2.6c0.2-0.6,0.3-1.1,0.3-2.9V26.1
			c0-1.5-0.1-2.4-0.3-3.1l2.9-0.6c0.2,0.9,0.2,1.6,0.2,2.6v3c0,0.7-0.1,1.1-0.1,1.2l0.1,0c0.9-0.9,1.8-1.3,3.1-1.3
			c3.1,0,5,2.5,5,6.6C168.3,38.7,166.2,41.5,163.2,41.5z M162.7,30.3c-1.2,0-1.9,0.7-2.5,1.3v6.3c0.6,0.6,1.4,1.1,2.4,1.1
			c1.8,0,2.5-1.3,2.5-4.5C165.2,32.2,164.7,30.3,162.7,30.3z"/>
	</g>
	<g>
		<g>
			<path class="st17" d="M56.6,13.8c0.1,0.1,0.1,0.2,0.2,0.5c0.3-0.3,0.7-0.5,1.2-0.5c0.4,0,0.7,0.1,1,0.4c0.1,0.1,0.1,0.2,0.2,0.2
				c0.4-0.5,0.8-0.6,1.4-0.6c0.4,0,0.7,0.1,1,0.3c0.3,0.2,0.4,0.5,0.4,1.2v3.4h-1.2v-3.2c0-0.6-0.1-0.7-0.4-0.7
				c-0.2,0-0.6,0.2-0.8,0.4v3.5h-1.2v-3.1c0-0.6-0.1-0.7-0.4-0.7c-0.2,0-0.6,0.1-0.8,0.4v3.5h-1.2v-3.4c0-0.7,0-1-0.2-1.2L56.6,13.8
				z"/>
			<path class="st17" d="M66.4,14.5c0.4,0.5,0.6,1,0.6,1.8c0,0.8-0.2,1.4-0.6,1.9c-0.4,0.4-0.9,0.7-1.6,0.7c-1.3,0-2.2-1-2.2-2.5
				c0-1.5,0.9-2.5,2.2-2.5C65.4,13.8,65.9,14,66.4,14.5z M64.1,15.2c-0.1,0.3-0.1,0.6-0.1,1.1c0,0.6,0.1,1,0.2,1.2
				c0.1,0.3,0.4,0.4,0.6,0.4c0.5,0,0.8-0.5,0.8-1.6c0-0.7-0.1-1.1-0.3-1.3c-0.1-0.2-0.3-0.3-0.5-0.3C64.4,14.7,64.2,14.9,64.1,15.2z
				"/>
			<path class="st17" d="M71,13.9v0.9l-2.1,3.1h2.2l-0.3,0.9h-3.6v-0.8l2.3-3.2h-2.1v-0.9H71z"/>
			<path class="st17" d="M73.1,12.6c0,0.4-0.3,0.8-0.8,0.8c-0.4,0-0.8-0.3-0.8-0.8c0-0.4,0.4-0.8,0.8-0.8
				C72.8,11.8,73.1,12.1,73.1,12.6z M73,13.8v5h-1.3V14L73,13.8z"/>
			<path class="st17" d="M75.3,13v3.8c0,0.8,0,0.9,0.1,1.1c0,0.1,0.2,0.1,0.3,0.1c0,0,0.1,0,0.1,0l0.2,0.8c-0.2,0.1-0.5,0.1-0.8,0.1
				c-0.5,0-1-0.3-1.1-0.7C74,17.9,74,17.8,74,17.1v-3.6c0-0.6,0-1-0.1-1.5l1.3-0.3C75.3,12,75.3,12.3,75.3,13z"/>
			<path class="st17" d="M77.9,13v3.8c0,0.8,0,0.9,0.1,1.1c0,0.1,0.1,0.1,0.3,0.1c0,0,0.1,0,0.1,0l0.2,0.8c-0.2,0.1-0.5,0.1-0.8,0.1
				c-0.5,0-1-0.3-1.1-0.7c-0.1-0.2-0.1-0.4-0.1-1.1v-3.6c0-0.6,0-1-0.1-1.5l1.3-0.3C77.9,12,77.9,12.3,77.9,13z"/>
			<path class="st17" d="M79.9,14.1c0.5-0.2,0.9-0.3,1.3-0.3c0.8,0,1.4,0.3,1.6,0.8c0.1,0.2,0.1,0.3,0.1,0.9l0,1.6c0,0,0,0.1,0,0.1
				c0,0.5,0.1,0.7,0.5,1L82.6,19c-0.3-0.1-0.6-0.3-0.7-0.6c-0.1,0.1-0.2,0.2-0.3,0.3c-0.2,0.2-0.6,0.3-1,0.3c-1.1,0-1.7-0.5-1.7-1.5
				c0-1.1,0.8-1.7,2.3-1.7c0.1,0,0.2,0,0.3,0v-0.2c0-0.5-0.1-0.7-0.6-0.7c-0.4,0-0.9,0.2-1.4,0.5l-0.5-0.9
				C79.4,14.3,79.6,14.2,79.9,14.1z M81.5,16.6c-0.9,0-1.2,0.2-1.2,0.7c0,0.4,0.2,0.6,0.6,0.6c0.2,0,0.5-0.1,0.7-0.3L81.5,16.6
				L81.5,16.6z"/>
		</g>
	</g>
</g>
</svg>
