<?xml version="1.0" encoding="UTF-8" standalone="no"?>
<svg width="200px" height="200px" viewBox="0 0 200 200" version="1.1" xmlns="http://www.w3.org/2000/svg" xmlns:xlink="http://www.w3.org/1999/xlink" xmlns:sketch="http://www.bohemiancoding.com/sketch/ns">
    <!-- Generator: Sketch 3.4.2 (15857) - http://www.bohemiancoding.com/sketch -->
    <title>science-fox</title>
    <desc>Created with Sketch.</desc>
    <defs></defs>
    <g id="Page-1" stroke="none" stroke-width="1" fill="none" fill-rule="evenodd" sketch:type="MSPage">
        <g id="science-fox" sketch:type="MSArtboardGroup">
            <g id="Page-1" sketch:type="MSLayerGroup">
                <path d="M0,0.689387429 L0,127.599039 L52.4390115,173.310919 L173.576023,56.3717189 L126.140644,0.689387429 L0,0.689387429 Z" id="Fill-1" fill="#2581B7" sketch:type="MSShapeGroup"></path>
                <g id="Group-6" transform="translate(25.908046, 28.142857)" sketch:type="MSShapeGroup">
                    <path d="M0.849896552,84.644596 C0.849896552,131.153482 38.5787701,168.85703 85.1175057,168.85703 C131.646103,168.85703 169.374977,131.153482 169.374977,84.644596 C169.374977,38.136836 131.646103,0.434413143 85.1175057,0.434413143 L0.849896552,0.434413143 L0.849896552,84.644596 Z" id="Fill-2" fill="#2581B7"></path>
                    <path d="M8.09862989,84.6447086 C8.09862989,127.152806 42.5822391,161.613171 85.1176184,161.613171 C127.64286,161.613171 162.126469,127.152806 162.126469,84.6447086 C162.126469,42.1377371 127.64286,7.67849714 85.1176184,7.67849714 L8.09862989,7.67849714 L8.09862989,84.6447086 Z" id="Fill-4" fill="#FFFFFF"></path>
                </g>
                <g id="Group-296" transform="translate(65.333333, 54.034286)" sketch:type="MSShapeGroup">
                    <path d="M59.2985609,1.71086057 C61.5277793,2.70936914 63.1791356,3.93752343 62.9932736,7.17620343 C62.8085379,10.4160091 62.9132966,15.4569577 58.7150667,16.3789177 C57.444446,16.6580949 52.4836184,17.0025634 50.7196184,15.6427006 C48.8395954,14.1927806 46.0809517,11.3458491 44.7168368,11.2681749 C43.3515954,11.1905006 42.1215264,14.2197977 41.4681931,15.7969234 C40.4645379,18.2194606 36.1311356,19.0952663 34.4381011,19.3282891 C32.0725839,19.6524949 29.6462391,19.198832 27.4496874,15.6573349 C25.6665379,12.784512 25.9346299,8.72743771 27.4508138,6.48163771 C29.1990437,3.89362057 35.0959402,1.74913486 44.6199632,0.735992 C52.8373195,-0.137562286 56.9015034,0.636929143 59.2985609,1.71086057" id="Fill-7" fill="#FFFFFF"></path>
                    <path d="M24.6054345,93.1008491 C24.6054345,93.1008491 38.4132966,94.5192491 46.3805839,93.2640777 C54.9460092,91.9143463 64.9780552,88.8355177 64.9780552,88.8355177 L64.9780552,78.0005177 L24.6054345,78.0005177 L24.6054345,93.1008491 Z" id="Fill-9" fill="#9EBEBC"></path>
                    <path d="M44.933,103.391679 C30.8176207,103.391679 19.3752759,106.337673 19.3752759,109.971479 C19.3752759,113.605285 30.8176207,116.551279 44.933,116.551279 C59.0483793,116.551279 70.4907241,113.605285 70.4907241,109.971479 C70.4907241,106.337673 59.0483793,103.391679 44.933,103.391679" id="Fill-11" fill="#D9D9D8"></path>
                    <path d="M48.712646,81.7992406 L48.712646,107.930446 C48.712646,107.930446 55.8914276,111.038543 58.0350368,111.542863 C62.3042322,112.547001 63.9555885,108.802875 61.772554,108.366098 C59.5895195,107.930446 53.0787149,105.588961 53.0787149,105.588961 L53.0787149,82.912572 L48.712646,81.7992406 Z" id="Fill-13" fill="#F26E26"></path>
                    <path d="M40.8030322,83.7854509 L40.8030322,107.929771 C40.8030322,107.929771 33.0249862,111.267514 30.8644805,111.693034 C27.0469862,112.446137 25.5600897,108.803325 27.7431241,108.366548 C29.9261586,107.929771 36.4369632,105.588285 36.4369632,105.588285 L36.4369632,82.9130223 L40.8030322,83.7854509 Z" id="Fill-15" fill="#F26E26"></path>
                    <path d="M81.4625563,63.1354606 C79.2862805,72.4226034 73.7678667,81.8403291 60.167269,80.2429406 C60.167269,80.2429406 60.2494989,62.4825463 60.2494989,62.460032 C60.2528782,61.5785977 62.6510621,60.040872 63.2368092,59.6479977 C64.4522345,58.8307291 65.7972,58.2138377 67.2007402,57.7961977 C68.9850161,57.2648606 70.8740506,57.3470377 72.701131,57.0138263" id="Fill-17" fill="#F26E26"></path>
                    <path d="M78.8996874,62.245696 C75.7501701,68.5001646 70.1360092,73.2270389 60.2053425,72.0743074 C60.1850667,76.2664674 60.1670437,80.243616 60.1670437,80.243616 C73.7687678,81.8410046 79.2871816,72.4221531 81.4634575,63.1350103" id="Fill-19" fill="#D75C27"></path>
                    <path d="M82.6707724,46.5034823 C82.6426115,50.3410423 80.5023816,53.4694023 77.2199448,55.3268309 C76.1092782,55.9549794 74.9163816,56.433408 73.6908184,56.7857566 C73.3089563,56.8960766 72.9214621,56.9726251 72.5328414,57.0379166 C73.1737839,58.4777051 75.2509333,61.6375851 81.4497149,63.186568 C83.4254851,54.7999966 82.6707724,46.5034823 82.6707724,46.5034823" id="Fill-21" fill="#ECDDC9"></path>
                    <path d="M82.811577,50.2037051 C82.811577,50.3005166 82.8127034,50.3984537 82.8127034,50.4986423 C82.8127034,50.3984537 82.811577,50.3005166 82.811577,50.2037051" id="Fill-23" fill="#E0D3C1"></path>
                    <path d="M82.8074092,49.7270777 C82.8085356,49.8013749 82.8096621,49.8767977 82.8096621,49.9522206 C82.8096621,49.8767977 82.8085356,49.8013749 82.8074092,49.7270777" id="Fill-25" fill="#E0D3C1"></path>
                    <path d="M82.8119149,50.7035223 C82.8119149,50.8239737 82.8107885,50.9444251 82.8096621,51.0682537 C82.8107885,50.9444251 82.8119149,50.8239737 82.8119149,50.7035223" id="Fill-27" fill="#E0D3C1"></path>
                    <path d="M82.7906253,48.8625291 C82.7917517,48.8884206 82.7917517,48.914312 82.7928782,48.9402034 C82.7917517,48.914312 82.7917517,48.8884206 82.7906253,48.8625291" id="Fill-29" fill="#E0D3C1"></path>
                    <path id="Fill-31" fill="#E0D3C1"></path>
                    <path d="M82.8003126,49.2800566 C82.8014391,49.3307137 82.8025655,49.3813709 82.803692,49.4331537 C82.8025655,49.3813709 82.8014391,49.3307137 82.8003126,49.2800566" id="Fill-33" fill="#E0D3C1"></path>
                    <path d="M82.8081977,51.2320451 C82.8070713,51.3727594 82.8048184,51.5157251 82.8025655,51.6609423 C82.8048184,51.5157251 82.8070713,51.3727594 82.8081977,51.2320451" id="Fill-35" fill="#E0D3C1"></path>
                    <path d="M82.7996368,51.7800429 C82.7962575,51.9443971 82.7928782,52.1110029 82.7883724,52.2809857 C82.7928782,52.1110029 82.7962575,51.9443971 82.7996368,51.7800429" id="Fill-37" fill="#E0D3C1"></path>
                    <path d="M82.7861195,52.3387349 C82.7804874,52.5289806 82.7748552,52.7214777 82.7669701,52.917352 C82.7748552,52.7214777 82.7804874,52.5289806 82.7861195,52.3387349" id="Fill-39" fill="#E0D3C1"></path>
                    <path d="M82.659508,46.7609331 C82.6381057,47.072756 82.6121977,47.3902074 82.5851632,47.7121617 C82.5829103,47.7256703 82.5817839,47.7403046 82.5806575,47.7549389 C82.6257149,47.4160989 82.6527494,47.0705046 82.6617609,46.718156 C82.6617609,46.7327903 82.6606345,46.7462989 82.659508,46.7609331" id="Fill-41" fill="#E0D3C1"></path>
                    <path d="M82.6709977,46.5107994 C82.6709977,46.5096737 82.6698713,46.5029194 82.6698713,46.5029194 C82.6698713,46.5907251 82.6619862,46.6751537 82.6597333,46.760708 C82.6608598,46.7460737 82.6608598,46.7325651 82.6619862,46.7190566 C82.6642391,46.6492623 82.6709977,46.5805937 82.6709977,46.5107994" id="Fill-43" fill="#E0D3C1"></path>
                    <path d="M82.7926529,48.9397531 C82.7960322,49.0500731 82.7982851,49.1637703 82.8005379,49.2797189 C82.7982851,49.1637703 82.7949057,49.0500731 82.7926529,48.9397531" id="Fill-45" fill="#E0D3C1"></path>
                    <path d="M82.8031287,49.433604 C82.8042552,49.5292897 82.806508,49.6272269 82.8076345,49.7274154 C82.806508,49.6272269 82.8042552,49.5292897 82.8031287,49.433604" id="Fill-47" fill="#E0D3C1"></path>
                    <path d="M82.7879218,52.280648 C82.7879218,52.2997851 82.7867954,52.320048 82.785669,52.3391851 C82.7867954,52.320048 82.7879218,52.2997851 82.7879218,52.280648" id="Fill-49" fill="#E0D3C1"></path>
                    <path d="M82.7670828,52.9202789 L82.7670828,52.9169017 L82.7670828,52.9202789" id="Fill-51" fill="#E0D3C1"></path>
                    <path d="M82.779023,48.476184 C82.7835287,48.6000126 82.786908,48.7294697 82.7902874,48.862304 C82.786908,48.728344 82.7835287,48.6000126 82.779023,48.476184" id="Fill-53" fill="#E0D3C1"></path>
                    <path d="M82.8098874,49.9527834 C82.8110138,50.0349606 82.8110138,50.1193891 82.8110138,50.2038177 C82.8110138,50.1193891 82.8110138,50.0349606 82.8098874,49.9527834" id="Fill-55" fill="#E0D3C1"></path>
                    <path d="M82.8020023,51.66128 C82.8008759,51.70068 82.8008759,51.74008 82.7997494,51.77948 C82.8008759,51.74008 82.8008759,51.70068 82.8020023,51.66128" id="Fill-57" fill="#E0D3C1"></path>
                    <path d="M82.81,51.0683663 C82.81,51.1224006 82.8088736,51.1775606 82.8077471,51.2315949 C82.8088736,51.1775606 82.81,51.1224006 82.81,51.0683663" id="Fill-59" fill="#E0D3C1"></path>
                    <path d="M82.779023,48.4759589 C82.7373448,47.234296 82.6708851,46.5037074 82.6708851,46.5037074 L82.6708851,46.5104617 C82.6708851,46.5149646 82.6720115,46.5228446 82.6731379,46.5419817 C82.6866552,46.6995817 82.7418506,47.391896 82.779023,48.4759589" id="Fill-61" fill="#E0D3C1"></path>
                    <path d="M82.8123655,50.4990926 L82.8123655,50.7039726 L82.8123655,50.4990926" id="Fill-63" fill="#E0D3C1"></path>
                    <path d="M82.7861195,52.3387349 C82.787246,52.3195977 82.787246,52.2993349 82.7883724,52.2801977 C82.7928782,52.1102149 82.7962575,51.9447349 82.7996368,51.7803806 C82.8007632,51.7409806 82.8007632,51.7004549 82.8018897,51.6610549 C82.8041425,51.5158377 82.8063954,51.372872 82.8086483,51.2321577 C82.8086483,51.1769977 82.8097747,51.1218377 82.8097747,51.0678034 C82.8109011,50.9439749 82.8120276,50.8235234 82.8120276,50.703072 L82.8120276,50.4993177 L82.8120276,50.2032549 C82.8109011,50.1188263 82.8109011,50.0343977 82.8097747,49.9522206 C82.8097747,49.875672 82.8086483,49.8013749 82.8075218,49.7270777 C82.8063954,49.6280149 82.805269,49.528952 82.8030161,49.4332663 C82.8018897,49.3814834 82.8007632,49.3308263 82.8007632,49.2801691 C82.7985103,49.1642206 82.795131,49.0493977 82.7928782,48.9402034 C82.7917517,48.914312 82.7917517,48.8884206 82.7906253,48.8625291 C82.787246,48.7296949 82.7827402,48.599112 82.7793609,48.4764091 L82.7793609,48.4764091 C82.7421885,47.3923463 82.6869931,46.700032 82.6734759,46.5413063 C82.6700966,46.6009691 82.6655908,46.6595063 82.6622115,46.7180434 C82.6520736,47.070392 82.6261655,47.4159863 82.581108,47.7548263 C82.1879816,52.2982091 81.1910851,57.7466663 78.8447172,62.3508377 C79.6230851,62.6592834 80.4803034,62.9440891 81.4501655,63.1861177 C82.3141425,59.5185406 82.6554529,55.8667234 82.7669701,52.9207291 L82.7669701,52.917352 C82.7748552,52.7214777 82.7804874,52.5289806 82.7861195,52.3387349" id="Fill-65" fill="#E0D3C1"></path>
                    <path d="M82.6735885,46.5415314 C82.6724621,46.5223943 82.6713356,46.51564 82.6713356,46.5111371 C82.6702092,46.5809314 82.664577,46.6484743 82.6623241,46.7182686 C82.6657034,46.6597314 82.6702092,46.6011943 82.6735885,46.5415314" id="Fill-67" fill="#E0D3C1"></path>
                    <path d="M24.6055471,0.555089714 L24.6055471,45.5431354 L64.9781678,45.5431354 L64.9781678,0.555089714 L59.6129494,5.22230114 L30.3796621,5.22230114 L24.6055471,0.555089714 Z" id="Fill-69" fill="#F26E26"></path>
                    <path d="M64.9785057,13.0895806 L64.9785057,31.1482891 L49.7006437,36.1228206 C50.5285747,14.8378149 62.5172414,13.1999006 64.9785057,13.0895806" id="Fill-71" fill="#ECDDC9"></path>
                    <path id="Fill-73" fill="#F26E26"></path>
                    <path d="M34.8486874,17.3065063 C46.9635149,25.7977691 45.3684805,36.1419577 45.3684805,36.1419577 L24.6059977,31.2923806 L24.6059977,13.0895806 C24.6059977,13.0895806 30.4139057,14.1984091 34.8486874,17.3065063" id="Fill-75" fill="#ECDDC9"></path>
                    <path d="M35.4426575,24.6774583 C36.0621977,25.2909726 36.0667034,26.2894811 35.4527954,26.908624 C34.8400138,27.5266411 33.8408644,27.531144 33.2213241,26.9187554 C32.6017839,26.3052411 32.5972782,25.3067326 33.2111862,24.6875897 C33.8239678,24.0684469 34.8242437,24.063944 35.4426575,24.6774583" id="Fill-77" fill="#272724"></path>
                    <path d="M59.9517816,24.5652246 C60.5713218,25.1776131 60.5758276,26.1772474 59.9619195,26.7963903 C59.3491379,27.4144074 58.3488621,27.4189103 57.7304483,26.8065217 C57.110908,26.1930074 57.1064023,25.1944989 57.7203103,24.575356 C58.333092,23.9562131 59.3333678,23.9517103 59.9517816,24.5652246" id="Fill-79" fill="#272724"></path>
                    <path d="M45.3687057,36.1420703 C45.3687057,36.1420703 45.4250276,34.4478703 44.740154,31.8418417 L50.0456713,31.8227046 C49.8789586,33.1600531 49.7595563,34.5885846 49.6998552,36.1218074" id="Fill-81" fill="#272724"></path>
                    <path d="M44.7395908,31.8416166 L50.0462345,31.8224794 C49.9910391,32.2570051 49.9448552,32.7050394 49.9009241,33.1587023 L45.0459816,33.175588 C44.9648782,32.7647023 44.8646253,32.3189194 44.7395908,31.8416166" id="Fill-83" fill="#333330"></path>
                    <path d="M64.9785057,13.0993743 L64.9785057,15.3733171 C61.1610115,15.88214 51.3587586,18.8720371 49.8763678,36.0853343 L49.7333103,36.1326143 C50.5612414,14.8476086 62.5172414,13.2096943 64.9785057,13.0993743" id="Fill-85" fill="#E0D3C1"></path>
                    <path d="M24.6228943,13.0992617 L24.6059977,15.3732046 C29.8856069,15.8820274 43.3972161,18.8719246 45.4484575,36.0852217 L45.6455839,36.1325017 C44.4999977,14.847496 28.0281126,13.2095817 24.6228943,13.0992617" id="Fill-87" fill="#E0D3C1"></path>
                    <path d="M24.6055471,32.9141971 L24.6055471,92.4847457 C28.6314322,92.4847457 44.1942828,87.8569343 48.1120299,82.9127971 C52.0286506,86.9158371 61.9311563,89.07158 64.9781678,88.83518 L64.9781678,33.1494714 L48.1120299,42.9566943 L24.6055471,32.9141971 Z" id="Fill-89" fill="#BAD6D5"></path>
                    <path d="M78.4101379,29.2848943 C78.748069,30.1201743 78.8843678,30.9813457 78.675977,31.82338 C78.2490575,33.5524771 75.3451034,35.2917057 75.3451034,35.2917057 C75.3451034,35.2917057 75.877908,38.0452029 77.2915862,39.6932486 C80.2349655,37.8695914 82.5351494,36.2350543 83.1546897,33.3453457 C83.4227816,32.0958029 83.3856092,30.69654 83.0330345,29.1621914 C81.5078391,29.2286086 79.9522299,29.2207286 78.4101379,29.2848943" id="Fill-91" fill="#F26E26"></path>
                    <path d="M64.9785057,38.06434 C64.9785057,38.06434 70.2795172,38.7701629 75.3451034,34.1795 C76.6416322,35.9457457 77.9967356,38.2422029 78.2907356,40.3011343 C73.9314253,42.8914029 70.8934253,43.8054829 64.9785057,44.0689 L64.9785057,38.06434 Z" id="Fill-93" fill="#BAD6D5"></path>
                    <path d="M48.1114667,42.9566943 C48.1114667,42.9566943 50.2877425,46.5218314 51.3296966,51.0685914 C59.5481793,42.98934 62.822731,37.3292486 64.978731,33.1494714 C60.702777,35.6350486 48.1114667,42.9566943 48.1114667,42.9566943" id="Fill-95" fill="#9BBBB9"></path>
                    <path d="M48.1114667,42.9566943 C48.1114667,42.9566943 50.8464552,44.48654 51.8884092,49.0333 C57.5926851,43.0535057 62.7089609,37.4564543 64.978731,33.1494714 C60.702777,35.6350486 48.1114667,42.9566943 48.1114667,42.9566943" id="Fill-97" fill="#CBE4E2"></path>
                    <path d="M62.9950759,7.18126914 C63.7295126,7.22292057 64.230777,7.26794914 64.9719724,7.71260629 C65.0992598,7.78352629 65.3200414,7.96364057 65.3200414,8.27546343 C65.3200414,9.41693771 65.3549609,10.7722977 65.3583402,11.5231491 C65.3594667,11.834972 64.9821103,12.0544863 64.9821103,12.0544863 C64.9821103,12.0544863 63.1786851,11.4679891 62.6334897,11.4679891 C62.9342483,9.352772 62.9793057,7.64056057 62.9950759,7.18126914" id="Fill-99" fill="#575757"></path>
                    <path d="M30.3794368,5.22185086 L29.6033218,4.59370229 C28.621069,5.18695371 27.8978966,5.81960514 27.4507011,6.48152514 C25.9345172,8.72732514 25.6664253,12.7843994 27.4495747,15.6572223 C29.6461264,19.1987194 32.0724713,19.6523823 34.4379885,19.3281766 C36.131023,19.0951537 40.4644253,18.219348 41.4680805,15.7968109 C42.1214138,14.2196851 43.3514828,11.190388 44.7167241,11.2680623 C46.0819655,11.3457366 48.8394828,14.192668 50.7195057,15.642588 C52.4835057,17.0024509 57.4443333,16.6579823 58.714954,16.3788051 C62.9131839,15.4568451 62.8084253,10.4158966 62.9931609,7.17609086 C63.0979195,5.36481657 62.6259425,4.18281657 61.8013908,3.318268 L59.6127241,5.22185086 L30.3794368,5.22185086 Z" id="Fill-101" fill="#8BD3DF"></path>
                    <path d="M30.3794368,5.22185086 L59.6127241,5.22185086 L61.8013908,3.318268 C61.1514368,2.63608514 60.2818276,2.15090229 59.2984483,1.710748 C56.9013908,0.636816571 52.8372069,-0.137674857 44.620977,0.735879429 C37.5323103,1.490108 32.4577126,2.87023371 29.6033218,4.59370229 L30.3794368,5.22185086 Z" id="Fill-103" fill="#D6EEF3"></path>
                    <path d="M62.8403034,5.21779829 C62.6803494,8.37655257 62.3243954,12.3919754 58.6229241,13.2058669 C57.3523034,13.485044 52.3914759,13.8283869 50.6274759,12.468524 C48.7474529,11.0197297 45.9899356,8.17279829 44.6246943,8.095124 C43.2594529,8.016324 42.0293839,11.0456211 41.3760506,12.6238726 C40.3723954,15.045284 36.0389931,15.9222154 34.3459586,16.1541126 C31.9804414,16.479444 29.5540966,16.0257811 27.3575448,12.484284 C26.8303724,11.6343697 26.4879356,10.6302326 26.3043264,9.58219257 C26.0767862,11.649004 26.3966943,13.957844 27.4510391,15.6576726 C29.6475908,19.1991697 32.0739356,19.6528326 34.4394529,19.3275011 C36.1324874,19.095604 40.4658897,18.2186726 41.4695448,15.7972611 C42.1228782,14.2190097 43.3529471,11.1897126 44.7181885,11.2685126 C46.0823034,11.3461869 48.8409471,14.1931183 50.7209701,15.6419126 C52.4849701,17.0017754 57.4457977,16.6584326 58.7164184,16.3792554 C62.9146483,15.4561697 62.8098897,10.4152211 62.9946253,7.17654114 C63.0385563,6.42118686 62.981108,5.77727829 62.8403034,5.21779829" id="Fill-105" fill="#8BD3DF"></path>
                    <path d="M27.5289885,12.6620343 C27.5289885,12.6620343 29.3977471,15.8523086 32.4109655,15.8556857 C34.2808506,15.8568114 37.4641609,14.7130857 38.1602989,14.42828 C41.7175862,12.9727314 42.6514023,9.79258857 42.6514023,9.79258857 C42.6514023,9.79258857 41.7784138,13.9678629 39.225908,15.0181543 C38.2188736,15.4324171 34.4723448,17.1682686 31.7745287,16.6864629 C29.2141379,16.2294229 27.8432644,13.5254571 27.5289885,12.6620343" id="Fill-107" fill="#7CBEBE"></path>
                    <path d="M62.2779862,8.46773543 C62.2779862,8.46773543 61.9614575,11.7998497 59.4799172,12.555204 C57.2078943,13.2463926 53.6787678,12.9480783 52.9736184,12.8400097 C49.3735264,12.2884097 47.0181471,9.43134686 47.0181471,9.43134686 C47.0181471,9.43134686 48.4318253,12.3165526 52.5421931,13.626884 C53.5300782,13.942084 58.0820092,14.328204 60.090446,13.343204 C62.184492,12.3165526 62.2227908,9.37618686 62.2779862,8.46773543" id="Fill-109" fill="#7CBEBE"></path>
                    <path d="M61.5094184,13.9839606 C60.3446828,15.6860406 58.7136023,15.8897949 57.1073034,16.137452 C55.9729816,16.3130634 53.8158552,16.4087491 51.6868897,15.7423263 C50.9592115,15.5138063 49.1118552,14.222612 48.7694184,13.8184806 C48.4269816,13.4143491 46.0344299,10.652972 44.6770736,10.8634806 C43.8705448,10.9895606 42.9423609,11.898012 42.4230736,12.7242863 C41.694269,13.8815206 40.7615793,16.397492 39.5427747,17.2980634 C37.5884069,18.7412291 35.3276483,19.2365434 33.2685218,19.257932 C30.7148897,19.2838234 28.4135793,17.0031263 28.4135793,17.0031263 C28.8247287,17.8429091 30.7993724,20.0943377 33.0635103,20.0977149 C36.5284299,20.1033434 38.6145908,19.4065263 40.3650736,17.9509777 C41.5388207,16.9761091 42.2135563,14.2473777 43.0459931,13.1531834 C43.4075793,12.6770063 44.1803149,11.5321549 44.7435333,11.448852 C45.3619471,11.3576691 46.5931425,12.4687491 47.0178092,12.9640634 C47.5776483,13.6169777 48.2512575,14.600852 49.5703149,15.7423263 C49.9870966,16.1025549 51.6733724,16.9941206 52.9011885,17.2046291 C55.3320391,17.6211434 58.5052115,17.0492806 59.5325218,16.7689777 C60.5598322,16.4886749 61.2616023,15.4946691 61.7425908,14.6841549 C62.1188207,14.0526291 62.4590046,12.8796349 62.5209586,11.5726806 C62.2776483,12.5509263 62.2179471,12.9494291 61.5094184,13.9839606" id="Fill-111" fill="#7CBEBE"></path>
                    <path d="M60.9722207,4.54056857 C60.8978759,4.44150571 60.8133931,4.34694571 60.7244046,4.25463714 L60.6433011,4.32555714 C60.7469333,4.39197429 60.8550713,4.46289429 60.9722207,4.54056857" id="Fill-113" fill="#8BD3DF"></path>
                    <path d="M29.2464667,7.422172 C30.2354782,6.85593771 32.7035011,5.90245771 35.3742828,5.22140057 L32.1459149,5.22140057 C31.1208575,5.57262343 30.1442368,5.99138914 29.4244437,6.48557771 C28.1763517,7.34449771 27.3461678,9.07922343 27.3461678,9.07922343 C27.3461678,9.07922343 28.0073862,8.131372 29.2464667,7.422172" id="Fill-115" fill="#8BD3DF"></path>
                    <path d="M60.7244046,4.25508743 C60.0384046,3.54926457 58.953646,3.05169886 58.1167034,2.79391029 C57.1704966,2.50122457 53.9804276,2.19503029 49.625623,2.408916 C44.9047264,2.64081314 38.5223356,3.66071029 37.2111632,3.93651029 C36.3449333,4.118876 34.149508,4.53764171 32.1467034,5.222076 L35.3739448,5.222076 C36.047554,5.04984171 36.733554,4.89449314 37.411669,4.76841314 C40.7842207,4.14026457 47.1046575,3.322996 49.6740598,3.21380171 C52.6793931,3.086596 55.6171402,3.09335029 57.9409793,3.41980743 C59.3670483,3.61905886 59.8626805,3.82506457 60.6433011,4.32488171 L60.7244046,4.25508743 Z" id="Fill-117" fill="#BEE5EC"></path>
                    <path d="M26.2260391,11.1365789 L24.5814414,11.4675389 C24.5814414,11.4675389 24.1714184,11.5789846 24.1714184,11.9954989 L24.1714184,16.0311846 C24.1714184,16.3126131 24.5814414,16.4533274 24.5814414,16.4533274 C24.5814414,16.4533274 25.6526828,15.8668303 27.4504759,15.6574474 C26.7137862,14.0409217 26.4389356,13.5793789 26.2260391,11.1365789" id="Fill-119" fill="#575757"></path>
                    <path d="M48.1114667,42.9566943 L48.1114667,82.9127971 C48.1114667,82.9127971 37.8710299,93.1005114 24.6049839,93.1005114 L24.6049839,32.9141971 L48.1114667,42.9566943 Z" id="Fill-121" fill="#CBE4E2"></path>
                    <path d="M24.6055471,32.9141971 L48.1120299,42.9566943 C48.1120299,42.9566943 45.8512713,46.5218314 44.7394782,51.0685914 C36.4703057,46.9057 27.4227655,37.2707114 24.6055471,32.9141971" id="Fill-123" fill="#9BBBB9"></path>
                    <path d="M41.7251333,54.8449126 L46.4572943,57.014164 L35.9160989,88.873004 L24.6055471,81.7990154 L24.6055471,72.8878611 L41.7251333,54.8449126 Z" id="Fill-125" fill="#BAD6D5"></path>
                    <path d="M24.6055471,32.9141971 L48.1120299,42.9566943 C48.1120299,42.9566943 45.4344897,44.9334486 44.3226966,49.4802086 C35.8778,44.3233114 27.0363977,35.8748257 24.6055471,32.9141971" id="Fill-127" fill="#DEEEEC"></path>
                    <path d="M64.9785057,42.4089217 C64.9785057,42.4089217 68.2113793,43.4941103 75.202046,41.9462531 C71.3057011,44.0682246 64.9785057,44.0682246 64.9785057,44.0682246 L64.9785057,42.4089217 Z" id="Fill-129" fill="#9BBBB9"></path>
                    <path d="M52.0697655,54.6160549 L61.8945471,53.8798377 L61.8945471,55.4907349 L52.0697655,56.4543463 L52.0697655,54.6160549 Z" id="Fill-131" fill="#9BBBB9"></path>
                    <path d="M52.0697655,54.6160549 C52.0697655,54.6160549 57.8416276,55.352272 61.8945471,53.8798377 L61.8945471,64.4345349 C61.8945471,65.7032149 59.9255356,67.6191806 57.7244782,67.8139291 C54.6042483,68.0919806 52.0697655,66.7062263 52.0697655,64.8026434 L52.0697655,54.6160549 Z" id="Fill-133" fill="#CBE4E2"></path>
                    <path d="M73.7267517,43.634712 L76.6554874,7.13567771 L70.8836253,6.67300914 L67.9548897,43.1720434 L67.9548897,43.1720434 L67.9548897,43.1720434 L67.9346138,43.4287063 L67.9470046,43.429832 C67.9593954,44.9123977 69.1016023,46.1664434 70.6087747,46.2880206 C72.1159471,46.408472 73.4451425,45.352552 73.6929586,43.8902491 L73.7064759,43.8913749 L73.7267517,43.634712 L73.7267517,43.634712 L73.7267517,43.634712 Z" id="Fill-135" fill="#7CBEBE"></path>
                    <path d="M71.6937586,7.27110114 L69.6154828,33.169284 L69.6244943,33.1704097 C69.6335057,34.2150726 70.438908,35.0987583 71.5000115,35.1831869 C72.5622414,35.2687411 73.4983103,34.524644 73.672908,33.4946154 L73.6819195,33.4957411 L75.7601954,7.59755829 L71.6937586,7.27110114 Z" id="Fill-137" fill="#FFFFFF"></path>
                    <path d="M73.8681195,5.73855371 C72.203246,5.60571943 71.1297517,5.895028 70.7569011,6.70779371 C70.617223,7.01286229 70.5980736,7.41136514 70.679177,7.67815943 C70.8796828,8.33445086 71.9317747,8.99749657 73.5955218,9.13033086 C75.2603954,9.26429086 76.3203724,8.818508 76.7067402,8.16109086 C76.8565563,7.90555371 76.9297747,7.52731371 76.7844644,7.19072514 C76.4544184,6.42636514 75.5329931,5.871388 73.8681195,5.73855371" id="Fill-139" fill="#8AC5C3"></path>
                    <path d="M70.8721356,17.5103731 L68.7938598,43.408556 L68.8028713,43.4096817 C68.8118828,44.4543446 69.6172851,45.3380303 70.6783885,45.4224589 C71.7406184,45.5080131 72.6766874,44.763916 72.8512851,43.7338874 L72.8602966,43.7350131 L74.963354,17.5610303 L70.8721356,17.5103731 Z" id="Fill-141" fill="#934E9D"></path>
                    <path d="M71.9981218,7.35057657 C72.3304207,7.61962229 72.9724897,7.83463371 73.7260759,7.89542229 C74.4774092,7.95621086 75.1453862,7.84589086 75.5171103,7.63313086 C75.1848115,7.36408514 74.5416161,7.14907371 73.7891563,7.08828514 C73.037823,7.02862229 72.369846,7.13781657 71.9981218,7.35057657" id="Fill-143" fill="#B4E0DE"></path>
                    <path d="M74.8956552,17.7267354 C74.6174253,18.1803983 73.5056322,18.473084 72.4096092,18.3819011 C71.3147126,18.2907183 70.6523678,17.8483126 70.9305977,17.3946497 C71.2077011,16.9409869 72.3206207,16.6483011 73.4155172,16.739484 C74.5104138,16.8317926 75.1738851,17.2730726 74.8956552,17.7267354" id="Fill-145" fill="#A465A8"></path>
                    <g id="Group-177" transform="translate(67.586207, 9.005714)" fill="#FFFFFF">
                        <path d="M5.46535862,3.59553143 C4.49887586,3.51448 3.65742759,3.26119429 3.13926667,2.93248571 L3.0728069,3.73849714 C3.59209425,4.06720571 4.43241609,4.32049143 5.39889885,4.40154286 L5.46535862,3.59553143 Z" id="Fill-147"></path>
                        <path d="M5.64468736,1.41344686 C4.6782046,1.33239543 3.83675632,1.07910971 3.3185954,0.750401143 L3.25213563,1.55641257 C3.77142299,1.88512114 4.61174483,2.13840686 5.57822759,2.21945829 L5.64468736,1.41344686 Z" id="Fill-149"></path>
                        <path d="M5.28614253,5.77772857 C4.31965977,5.69667714 3.47821149,5.44339143 2.96005057,5.11468286 L2.8935908,5.92069429 C3.41287816,6.24940286 4.2532,6.50268857 5.21968276,6.58374 L5.28614253,5.77772857 Z" id="Fill-151"></path>
                        <path d="M5.10681379,7.95981314 C4.14033103,7.87876171 3.29888276,7.625476 2.78072184,7.29676743 L2.71426207,8.10277886 C3.23354943,8.43148743 4.07387126,8.68477314 5.04035402,8.76582457 L5.10681379,7.95981314 Z" id="Fill-153"></path>
                        <path d="M4.9275977,10.1420103 C3.96111494,10.0609589 3.11966667,9.80767314 2.60150575,9.47896457 L2.53504598,10.284976 C3.05433333,10.6136846 3.89465517,10.8669703 4.86113793,10.9480217 L4.9275977,10.1420103 Z" id="Fill-155"></path>
                        <path d="M4.74826897,12.3240949 C3.78178621,12.2430434 2.94033793,11.9897577 2.42217701,11.6610491 L2.35571724,12.4670606 C2.8750046,12.7957691 3.71532644,13.0490549 4.6818092,13.1301063 L4.74826897,12.3240949 Z" id="Fill-157"></path>
                        <path d="M4.56905287,14.506292 C3.60257011,14.4252406 2.76112184,14.1719549 2.24296092,13.8432463 L2.17650115,14.6492577 C2.69578851,14.9779663 3.53611034,15.231252 4.5025931,15.3123034 L4.56905287,14.506292 Z" id="Fill-159"></path>
                        <path d="M4.38972414,16.6883766 C3.42324138,16.6073251 2.5817931,16.3540394 2.06363218,16.0253309 L1.99717241,16.8313423 C2.51645977,17.1600509 3.35678161,17.4133366 4.32326437,17.494388 L4.38972414,16.6883766 Z" id="Fill-161"></path>
                        <path d="M4.21050805,18.8705737 C3.24402529,18.7895223 2.40257701,18.5362366 1.88441609,18.207528 L1.81795632,19.0135394 C2.33724368,19.342248 3.17756552,19.5955337 4.14404828,19.6765851 L4.21050805,18.8705737 Z" id="Fill-163"></path>
                        <path d="M3.67274713,25.41694 C2.70626437,25.3358886 1.86481609,25.0826029 1.34665517,24.7538943 L1.2801954,25.5599057 C1.79948276,25.8886143 2.6398046,26.1419 3.60628736,26.2229514 L3.67274713,25.41694 Z" id="Fill-165"></path>
                        <path d="M3.49341839,27.5991371 C2.52693563,27.5180857 1.68548736,27.2648 1.16732644,26.9360914 L1.10086667,27.7421029 C1.62015402,28.0708114 2.46047586,28.3240971 3.42695862,28.4051486 L3.49341839,27.5991371 Z" id="Fill-167"></path>
                        <path d="M3.3142023,29.7812217 C2.34771954,29.7001703 1.50627126,29.4468846 0.988110345,29.118176 L0.921650575,29.9241874 C1.44093793,30.252896 2.28125977,30.5061817 3.24774253,30.5872331 L3.3142023,29.7812217 Z" id="Fill-169"></path>
                        <path d="M3.13487356,31.9633063 C2.1683908,31.8822549 1.32694253,31.6289691 0.808781609,31.3002606 L0.742321839,32.106272 C1.2616092,32.4349806 2.10193103,32.6882663 3.06841379,32.7693177 L3.13487356,31.9633063 Z" id="Fill-171"></path>
                        <path d="M4.03129195,21.0526583 C3.0648092,20.9716069 2.22336092,20.7183211 1.7052,20.3896126 L1.63874023,21.195624 C2.15802759,21.5243326 2.99834943,21.7776183 3.96483218,21.8586697 L4.03129195,21.0526583 Z" id="Fill-173"></path>
                        <path d="M3.85196322,23.2348554 C2.88548046,23.153804 2.04403218,22.9005183 1.52587126,22.5718097 L1.45941149,23.3778211 C1.97869885,23.7065297 2.81902069,23.9598154 3.78550345,24.0408669 L3.85196322,23.2348554 Z" id="Fill-175"></path>
                    </g>
                    <path d="M76.7584437,7.191288 C76.4283977,6.426928 75.505846,5.87195086 73.8420989,5.73911657 C72.1772253,5.60515657 71.103731,5.89559086 70.7308805,6.70835657 C70.5912023,7.01229943 70.5720529,7.411928 70.6531563,7.67759657 C70.8536621,8.333888 71.905754,8.99693371 73.5695011,9.13089371 C75.2343747,9.263728 76.2943517,8.81794514 76.6807195,8.160528 C76.8305356,7.90611657 76.903754,7.52675086 76.7584437,7.191288" id="Fill-178" fill="#9FD7D4"></path>
                    <path d="M75.8067172,7.17226343 C75.8067172,7.17226343 75.7177287,8.25407486 75.6614069,8.94413771 C73.5560966,9.59029771 71.5859586,8.619932 71.5859586,8.619932 L71.7335218,6.80640629 L75.8067172,7.17226343 Z" id="Fill-180" fill="#B1853F"></path>
                    <path d="M71.6075862,5.43044571 L71.7427586,6.78242857 C71.7427586,6.78242857 71.6098391,7.60982857 73.6633333,7.78206286 C75.7157011,7.95542286 75.8407356,7.10438286 75.8407356,7.10438286 L76.2428736,5.85371429 L71.6075862,5.43044571 Z" id="Fill-182" fill="#926A2D"></path>
                    <path d="M76.2647264,5.75386343 C76.2174161,6.25930914 75.1371632,6.579012 73.8518989,6.46756629 C72.5677609,6.35612057 71.5652322,5.85630343 71.6125425,5.35085771 C71.6609793,4.845412 72.7401057,4.52570914 74.0253701,4.63715486 C75.309508,4.74860057 76.3120368,5.24841771 76.2647264,5.75386343" id="Fill-184" fill="#B1853F"></path>
                    <path d="M80.5262621,23.3408977 C78.2902851,19.6429263 75.3592966,19.005772 74.2846759,19.462812 C72.7673655,20.108972 72.5330667,22.6125606 73.6955494,23.7011263 C74.5065839,24.4598577 77.3868828,26.751812 78.4096874,29.2846691 C79.9517793,29.2205034 81.5085149,29.2283834 83.0325839,29.1619663 C82.6270667,27.397972 81.8036414,25.4538634 80.5262621,23.3408977" id="Fill-186" fill="#F26E26"></path>
                    <path d="M80.5262621,23.3408977 C78.2902851,19.6429263 75.3592966,19.005772 74.2846759,19.462812 C72.7673655,20.108972 72.5330667,22.6125606 73.6955494,23.7011263 C74.238492,24.2088234 75.7073655,25.4032063 76.9272966,26.8970291 C78.3556184,26.4715091 80.0159862,25.6272234 80.8799632,23.9454063 C80.7650667,23.7450291 80.6490437,23.544652 80.5262621,23.3408977" id="Fill-188" fill="#ECDDC9"></path>
                    <path d="M74.3747908,20.075088 C74.3747908,20.075088 75.5676874,19.6709566 77.0602161,20.6120537 C78.5685149,21.5621566 79.9551586,23.2484766 80.6141241,24.4000823 C80.3753195,24.7805737 80.2041011,24.9696937 79.8278713,25.3265451 C79.3525149,24.7028994 77.3868828,22.0113166 76.2187678,21.241328 C75.2432736,20.5974194 74.8186069,20.1527623 74.3747908,20.075088" id="Fill-190" fill="#E0D3C1"></path>
                    <path d="M8.05864138,38.0640023 L0.103744828,66.5051737 L35.0604575,87.0922366 L45.545331,54.6007451 L8.05864138,38.0640023 Z" id="Fill-192" fill="#5D98C5"></path>
                    <path d="M12.7775103,44.284024 L12.356223,45.5482011 L13.4623839,46.0221269 L13.9377402,44.8108583 L12.7775103,44.284024 Z" id="Fill-194" fill="#9BB9D9"></path>
                    <path d="M8.71817011,42.2820537 L8.40164138,43.4933223 L11.7753195,45.1796423 L12.0918483,43.9154651 L8.71817011,42.2820537 Z" id="Fill-196" fill="#9BB9D9"></path>
                    <path d="M9.24545517,40.1747166 L8.87598391,41.5976194 L16.0986966,45.0738251 L16.5729264,43.4933223 L9.24545517,40.1747166 Z" id="Fill-198" fill="#9BB9D9"></path>
                    <path d="M14.3198276,50.2987154 C14.1373448,50.7737669 13.6597356,51.0315554 13.253092,50.8750811 C12.8464483,50.7186069 12.6662184,50.2075326 12.8487011,49.7324811 C13.0311839,49.2574297 13.5087931,48.9996411 13.9154368,49.1561154 C14.3220805,49.3125897 14.5023103,49.823664 14.3198276,50.2987154" id="Fill-200" fill="#9BB9D9"></path>
                    <path d="M28.6181402,58.124456 L27.926508,54.4692617 C27.7046,54.6133531 27.4567839,54.6899017 27.2067149,54.6831474 L27.9028529,58.3631074 C28.1213816,58.211136 28.3680713,58.1267074 28.6181402,58.124456" id="Fill-202" fill="#9BB9D9"></path>
                    <path d="M21.4045517,57.5049754 C21.3369655,57.274204 21.320069,57.0186669 21.3718851,56.7586269 L17.799954,57.006284 C17.8427586,57.2449354 17.8258621,57.502724 17.7492644,57.7582611 L21.4045517,57.5049754 Z" id="Fill-204" fill="#9BB9D9"></path>
                    <path d="M35.644177,55.6145634 C35.4414184,55.7913006 35.2037402,55.903872 34.958177,55.9398949 L37.0950276,63.8142663 C37.2989126,63.6386549 37.5354644,63.5260834 37.782154,63.4900606 L35.644177,55.6145634 Z" id="Fill-206" fill="#9BB9D9"></path>
                    <path d="M14.4074644,51.0224371 C14.2216023,51.2171857 13.9974414,51.3545229 13.7586368,51.4186886 L15.6566828,56.4787743 C15.8357862,56.2727686 16.0576943,56.1264257 16.2931195,56.0476257 L14.4074644,51.0224371 Z" id="Fill-208" fill="#9BB9D9"></path>
                    <path d="M26.1120437,53.6999486 L23.5809402,55.8399314 C23.7521586,56.0279257 23.8636759,56.2733314 23.905354,56.5446286 L26.4702506,54.3753771 C26.2888943,54.1997657 26.1661126,53.9644914 26.1120437,53.6999486" id="Fill-210" fill="#9BB9D9"></path>
                    <path d="M12.2930299,50.1379634 L8.01257011,52.4152834 L8.36401839,53.0738263 L12.4777655,50.8854377 C12.3538575,50.6693006 12.2885241,50.4103863 12.2930299,50.1379634" id="Fill-212" fill="#9BB9D9"></path>
                    <path d="M33.7031011,55.111144 L29.4395379,58.4736526 C29.6107563,58.6582697 29.7234,58.9002983 29.7662046,59.1670926 L34.1255149,55.7291611 C33.9261356,55.5771897 33.7819517,55.3621783 33.7031011,55.111144" id="Fill-214" fill="#9BB9D9"></path>
                    <path d="M7.65977011,53.6799109 C7.47728736,54.1549623 6.99967816,54.4127509 6.59303448,54.2562766 C6.1863908,54.0998023 6.00616092,53.588728 6.18864368,53.1136766 C6.37112644,52.6386251 6.84873563,52.3808366 7.25537931,52.5373109 C7.66202299,52.6937851 7.84225287,53.2048594 7.65977011,53.6799109" id="Fill-216" fill="#9BB9D9"></path>
                    <path d="M38.6082828,65.1277497 C38.4258,65.6028011 37.9481908,65.8605897 37.5415471,65.7041154 C37.1349034,65.5476411 36.9546736,65.0365669 37.1371563,64.5615154 C37.3196391,64.086464 37.7972483,63.8286754 38.203892,63.9851497 C38.6105356,64.141624 38.7907655,64.6526983 38.6082828,65.1277497" id="Fill-218" fill="#9BB9D9"></path>
                    <path d="M35.6361793,54.830616 C35.4536966,55.3056674 34.9760874,55.563456 34.5694437,55.4069817 C34.1628,55.2505074 33.9825701,54.7394331 34.1650529,54.2643817 C34.3475356,53.7893303 34.8251448,53.5315417 35.2317885,53.688016 C35.6384322,53.8444903 35.8186621,54.3555646 35.6361793,54.830616" id="Fill-220" fill="#9BB9D9"></path>
                    <path d="M29.1916092,59.9277377 C29.0091264,60.4027891 28.5315172,60.6605777 28.1248736,60.5041034 C27.7182299,60.3476291 27.538,59.8365549 27.7204828,59.3615034 C27.9029655,58.886452 28.3805747,58.6286634 28.7872184,58.7851377 C29.1938621,58.941612 29.374092,59.4526863 29.1916092,59.9277377" id="Fill-222" fill="#9BB9D9"></path>
                    <path d="M28.0267609,53.563512 C27.8442782,54.0385634 27.366669,54.296352 26.9600253,54.1398777 C26.5533816,53.9834034 26.3731517,53.4723291 26.5556345,52.9972777 C26.7381172,52.5222263 27.2157264,52.2644377 27.6223701,52.420912 C28.0290138,52.5773863 28.2092437,53.0884606 28.0267609,53.563512" id="Fill-224" fill="#9BB9D9"></path>
                    <path d="M23.3669172,57.2501137 C23.1844345,57.7251651 22.7068253,57.9829537 22.3001816,57.8264794 C21.8935379,57.6700051 21.713308,57.1589309 21.8957908,56.6838794 C22.0782736,56.208828 22.5558828,55.9510394 22.9625264,56.1075137 C23.3691701,56.263988 23.5494,56.7750623 23.3669172,57.2501137" id="Fill-226" fill="#9BB9D9"></path>
                    <path d="M17.2316667,57.6769846 C17.0491839,58.152036 16.5715747,58.4098246 16.164931,58.2533503 C15.7582874,58.096876 15.5780575,57.5858017 15.7605402,57.1107503 C15.943023,56.6356989 16.4206322,56.3779103 16.8272759,56.5343846 C17.2339195,56.6908589 17.4141494,57.2019331 17.2316667,57.6769846" id="Fill-228" fill="#9BB9D9"></path>
                    <path d="M22.4939287,78.0759406 L24.6026184,79.4110377 L25.2199057,77.9881349 L22.9005724,76.4425291 L22.4939287,78.0759406 Z" id="Fill-230" fill="#9BB9D9"></path>
                    <path d="M19.2129563,76.2691691 L21.321646,77.6042663 L23.7468644,70.8950091 L21.427531,69.3494034 L19.2129563,76.2691691 Z" id="Fill-232" fill="#9BB9D9"></path>
                    <path d="M15.8390529,74.2671989 L17.9477425,75.602296 L19.4245011,71.5272103 L17.1040414,69.9816046 L15.8390529,74.2671989 Z" id="Fill-234" fill="#9BB9D9"></path>
                    <path d="M12.5352138,72.2299937 L14.6439034,73.5650909 L15.6284092,70.9658166 L13.3079494,69.4202109 L12.5352138,72.2299937 Z" id="Fill-236" fill="#9BB9D9"></path>
                    <path d="M9.23137471,69.9820549 L11.3400644,71.317152 L13.448754,64.7835063 L11.1294207,63.2379006 L9.23137471,69.9820549 Z" id="Fill-238" fill="#9BB9D9"></path>
                    <path d="M5.85724598,67.8746051 L7.96593563,69.2097023 L10.4970391,61.2013709 L8.17657931,59.6557651 L5.85724598,67.8746051 Z" id="Fill-240" fill="#9BB9D9"></path>
                    <path d="M2.69409885,65.9076446 L4.80278851,67.2427417 L6.34938621,62.4652103 L4.03005287,60.9196046 L2.69409885,65.9076446 Z" id="Fill-242" fill="#9BB9D9"></path>
                    <path d="M29.8174575,80.8112011 C29.0154345,80.5185154 28.3936414,79.8746069 28.0647218,78.995424 C27.7290437,78.097104 27.7391816,77.064824 28.0951356,76.0899554 C28.6628598,74.535344 29.9785379,73.5120697 31.3257563,73.4276411 L30.8436414,77.309104 C30.8436414,77.309104 32.6538253,77.3158583 34.4189517,77.2787097 C34.3795264,77.6198011 34.3018023,77.9653954 34.1767678,78.3076126 C33.4502161,80.2990011 31.4935954,81.422464 29.8174575,80.8112011 M32.7112736,72.8850469 C30.6476414,72.131944 28.2618483,73.455784 27.3933655,75.8344183 C26.9765839,76.9758926 26.966446,78.191664 27.3652046,79.2577154 C27.7707218,80.342904 28.5513425,81.1444126 29.5617563,81.5125211 C30.0010667,81.6734983 30.4561471,81.7387897 30.9067218,81.7207783 C32.5727218,81.6532354 34.1959172,80.4352126 34.8785379,78.5631497 C35.7470207,76.1845154 34.7749057,73.637024 32.7112736,72.8850469" id="Fill-244" fill="#9BB9D9"></path>
                    <path d="M4.71165977,56.190704 L37.2386483,74.0512869 L37.6610621,72.9976183 L5.08113103,55.2428526 L4.71165977,56.190704 Z" id="Fill-246" fill="#9BB9D9"></path>
                    <path d="M24.5698391,60.8799794 L23.5515402,63.9329166 L33.1251264,69.3611109 L34.4148966,66.3081737 L28.0325057,62.6439737 L27.8962069,61.1467737 L27.0142069,62.2375909 L24.5698391,60.8799794 Z" id="Fill-248" fill="#9BB9D9"></path>
                    <path d="M16.7645333,48.4303674 C16.7645333,48.4303674 13.5158897,54.5857731 12.9943494,60.3212874 C12.7476598,63.0410131 12.5234989,67.7374931 13.7017517,69.2684646 C14.8800046,70.799436 18.3584414,70.6722303 18.1230161,67.2579389 C17.8875908,63.8436474 17.7884644,62.9002989 18.0238897,59.4860074 C18.125269,58.0237046 18.989246,54.9651389 19.8453379,52.3039503 C20.1539816,52.3410989 20.5865333,52.5212131 20.5865333,52.5212131 C20.5865333,52.5212131 22.6422805,47.6367389 23.8757287,45.867116 C22.6974759,45.1601674 16.7645333,48.4303674 16.7645333,48.4303674" id="Fill-250" fill="#518FB7"></path>
                    <path d="M24.6055471,33.9825 C24.6055471,33.9825 29.3692483,44.8377629 41.7634322,50.1151114 C41.5854552,51.2532086 41.8929724,51.2397 41.4829494,52.2674771 C33.3985126,48.1935171 28.3149034,45.1574657 24.6055471,36.7708943 L24.6055471,33.9825 Z" id="Fill-252" fill="#926A2D"></path>
                    <path d="M64.9785057,35.2305794 C64.9785057,35.2305794 60.832092,46.4235566 55.4702529,50.4299737 C55.5851494,51.539928 55.4916552,51.8191051 55.7552414,52.8221166 C59.6346897,49.7061394 62.5915862,46.1826537 64.9785057,37.9964594 L64.9785057,35.2305794 Z" id="Fill-254" fill="#926A2D"></path>
                    <path d="M57.1006575,58.0224663 C57.1006575,58.0224663 56.6286805,57.9560491 55.9697149,57.8772491 L55.0268874,51.8467977 C55.0268874,51.8467977 52.7030483,51.4392891 51.9201747,51.443792 C51.3772322,51.4471691 50.0390253,51.6711863 49.4003356,51.7837577 C47.9168184,51.6711863 44.9002207,51.4471691 44.3584046,51.443792 C43.575531,51.4392891 41.251692,51.8467977 41.251692,51.8467977 L40.3088644,57.8772491 C39.6487724,57.9560491 39.1779218,58.0224663 39.1779218,58.0224663 L37.4398299,69.9719234 C37.4398299,69.9719234 39.5440138,71.0458549 42.5977839,71.0458549 C44.4811862,71.0458549 47.3074161,70.2814949 48.5228414,69.9257691 L48.5228414,69.9719234 C48.5228414,69.9719234 51.2251632,71.0458549 53.6807954,71.0458549 C56.7334391,71.0458549 58.8387494,69.9719234 58.8387494,69.9719234 L57.1006575,58.0224663 Z" id="Fill-256" fill="#5E5E5E"></path>
                    <path d="M46.4708115,49.4584823 L42.0292713,49.4584823 L42.371708,46.173648 C42.371708,46.173648 43.3663517,45.8787109 44.6561218,45.8787109 C45.1190874,45.8787109 46.4708115,46.260328 46.4708115,46.260328 L46.4708115,49.4584823 Z" id="Fill-258" fill="#575757"></path>
                    <path d="M47.3114713,56.14106 L39.831931,56.14106 L40.9358391,49.0760771 C40.9358391,49.0760771 43.414,48.6426771 44.2498161,48.64718 C45.0225517,48.6505571 47.3114713,49.0760771 47.3114713,49.0760771 L47.3114713,56.14106 Z" id="Fill-260" fill="#62706F"></path>
                    <path d="M41.5801609,49.4584823 L40.6283218,56.8949509 L42.0284828,56.5617394 L43.0084828,49.2839966 C43.0084828,49.2839966 42.8181149,49.0622309 41.5801609,49.4584823" id="Fill-262" fill="#738180"></path>
                    <path d="M47.8726621,68.4084189 C47.8726621,68.4084189 44.9901103,69.554396 42.3711448,69.554396 C39.1146161,69.554396 36.870754,68.4084189 36.870754,68.4084189 L38.7237425,55.6642074 C38.7237425,55.6642074 41.7899034,55.2341846 43.3657885,55.2341846 C45.3674667,55.2341846 47.8726621,55.6642074 47.8726621,55.6642074 L47.8726621,68.4084189 Z" id="Fill-264" fill="#62706F"></path>
                    <path d="M38.4942874,68.0743069 C38.4942874,68.0743069 41.2067471,67.8457869 42.1135287,67.8424097 C43.1216897,67.8401583 46.1360345,68.0743069 46.1360345,68.0743069 C46.1360345,68.0743069 44.6446322,68.7970154 42.0741034,68.7970154 C39.7987011,68.7970154 38.4942874,68.0743069 38.4942874,68.0743069" id="Fill-266" fill="#C6E6F9"></path>
                    <path d="M39.3767379,56.37746 L37.7907149,67.4285971 L40.2452207,67.0210886 L41.5789218,56.1692029 C41.5789218,56.1692029 40.5178184,56.1241743 39.3767379,56.37746" id="Fill-268" fill="#738180"></path>
                    <path d="M50.0936575,49.4584823 L54.5351977,49.4584823 L54.1927609,46.173648 C54.1927609,46.173648 53.1981172,45.8787109 51.9083471,45.8787109 C51.4453816,45.8787109 50.0936575,46.260328 50.0936575,46.260328 L50.0936575,49.4584823 Z" id="Fill-270" fill="#575757"></path>
                    <path d="M49.2529977,56.14106 L56.7325379,56.14106 L55.6286299,49.0760771 C55.6286299,49.0760771 53.150469,48.6426771 52.3146529,48.64718 C51.5419172,48.6505571 49.2529977,49.0760771 49.2529977,49.0760771 L49.2529977,56.14106 Z" id="Fill-272" fill="#62706F"></path>
                    <path d="M50.1356736,49.4473377 L50.1356736,55.7592177 C50.1356736,55.7592177 50.9669839,55.5565891 51.5335816,55.5565891 C51.5335816,54.9768463 51.2891448,49.2447091 51.2891448,49.2447091 C51.2891448,49.2447091 50.670731,49.1872977 50.1356736,49.4473377" id="Fill-274" fill="#738180"></path>
                    <path d="M50.7122966,54.5336526 L45.9756299,54.5336526 L46.543354,55.150544 L50.1671011,55.150544 L50.7122966,54.5336526 Z" id="Fill-276" fill="#3F4040"></path>
                    <path d="M50.7122966,54.5336526 L45.9756299,54.5336526 L46.1659977,50.438304 L50.535446,50.438304 L50.7122966,54.5336526 Z" id="Fill-278" fill="#575757"></path>
                    <path d="M48.6916943,68.4084189 C48.6916943,68.4084189 51.574246,69.554396 54.1932115,69.554396 C57.4497402,69.554396 59.6936023,68.4084189 59.6936023,68.4084189 L57.8406138,55.6642074 C57.8406138,55.6642074 54.7744529,55.2341846 53.1985678,55.2341846 C51.1968897,55.2341846 48.6916943,55.6642074 48.6916943,55.6642074 L48.6916943,68.4084189 Z" id="Fill-280" fill="#62706F"></path>
                    <path d="M49.6948989,56.5091686 L49.6948989,67.2079571 C49.6948989,67.2079571 51.2516345,66.8646143 52.3149908,66.8646143 C52.3149908,65.8829914 51.8554046,56.1658257 51.8554046,56.1658257 C51.8554046,56.1658257 50.698554,56.0678886 49.6948989,56.5091686" id="Fill-282" fill="#738180"></path>
                    <path d="M50.5782506,68.0743069 C50.5782506,68.0743069 53.2907103,67.8457869 54.197492,67.8424097 C55.2056529,67.8401583 58.2199977,68.0743069 58.2199977,68.0743069 C58.2199977,68.0743069 56.7285954,68.7970154 54.1580667,68.7970154 C51.8826644,68.7970154 50.5782506,68.0743069 50.5782506,68.0743069" id="Fill-284" fill="#C6E6F9"></path>
                    <path d="M16.0057655,48.4258646 C16.0057655,48.4258646 12.7571218,54.5812703 12.2355816,60.3167846 C11.988892,63.0365103 11.764731,67.7329903 12.9429839,69.2639617 C14.1212368,70.7949331 17.5996736,70.6677274 17.3642483,67.253436 C17.128823,63.8391446 17.0296966,62.895796 17.2651218,59.4815046 C17.5005471,56.0672131 19.7759494,50.4273846 20.2468,49.2498874 C19.0685471,48.5440646 16.0057655,48.4258646 16.0057655,48.4258646" id="Fill-286" fill="#F26E26"></path>
                    <path d="M12.9455747,69.2639617 C14.1238276,70.7949331 17.6022644,70.6677274 17.3668391,67.253436 C17.2688391,65.8316589 17.1944943,64.8376531 17.1584483,63.9156931 C17.1584483,63.9156931 14.9393678,64.306316 14.3085632,64.3119446 C13.6236897,64.3186989 12.0432989,63.9156931 12.0432989,63.9156931 C12.0196437,66.0984531 12.2066322,68.3037274 12.9455747,69.2639617" id="Fill-288" fill="#ECDDC9"></path>
                    <path d="M15.3131195,64.2087166 C15.3131195,64.2087166 16.142177,67.8019966 15.0168667,69.4061394 C16.2120161,69.1528537 16.7864989,68.5911223 16.9115333,67.6038709 C17.0196713,66.7539566 16.8597172,65.3862137 16.6164069,64.0083394 C16.080223,64.0961451 15.3131195,64.2087166 15.3131195,64.2087166" id="Fill-290" fill="#E0D3C1"></path>
                    <path d="M24.6055471,36.7706691 C24.6055471,36.7706691 16.3589034,44.8938234 14.7098,48.7786634 C16.241754,49.7208863 18.4799839,50.5449091 20.1290874,51.6042063 C21.3073402,49.8390863 23.3101448,46.3065949 24.6055471,45.0120234 L24.6055471,36.7706691 Z" id="Fill-292" fill="#CBE4E2"></path>
                    <path d="M73.5205011,9.13033086 C72.6745471,9.05040514 72.124846,8.84777657 71.5852828,8.62038229 L71.536846,9.23389657 C71.536846,9.23389657 73.5058575,10.2042623 75.6111678,9.55810229 C75.6280644,9.35772514 75.6382023,9.16410229 75.6573517,8.93445657 C75.0479494,9.12245086 74.414892,9.21588514 73.5205011,9.13033086" id="Fill-294" fill="#B1853F"></path>
                </g>
            </g>
        </g>
    </g>
</svg>